<svg xmlns="http://www.w3.org/2000/svg" viewBox="0 0 17.46 17.46"><defs><style>.cls-1{fill:#fff;}</style></defs><g id="Layer_2" data-name="Layer 2"><g id="Layer_1-2" data-name="Layer 1"><path class="cls-1" d="M6.15,15.46H2.72A.72.72,0,0,1,2,14.74v-12A.72.72,0,0,1,2.72,2H6.15a1,1,0,0,0,0-2H2.72A2.72,2.72,0,0,0,0,2.72v12a2.72,2.72,0,0,0,2.72,2.72H6.15a1,1,0,0,0,0-2Z"/><path class="cls-1" d="M17.38,9.12a1.09,1.09,0,0,0,.08-.39,1,1,0,0,0-.08-.38A.93.93,0,0,0,17.17,8l-4.3-4.29a1,1,0,1,0-1.41,1.41l2.59,2.59H6.15a1,1,0,0,0,0,2h7.9l-2.59,2.59a1,1,0,0,0,0,1.41,1,1,0,0,0,1.41,0l4.3-4.29A1,1,0,0,0,17.38,9.12Z"/></g></g></svg>