<svg xmlns="http://www.w3.org/2000/svg" viewBox="0 0 26.1 24.59"><defs><style>.cls-1{fill:#fff;}</style></defs><g id="Layer_2" data-name="Layer 2"><g id="Layer_1-2" data-name="Layer 1"><path class="cls-1" d="M12.75,2.1l-.93-.2c-.56-.09-1.12-.2-1.68-.25A5.82,5.82,0,0,0,7.8,2,7.58,7.58,0,0,0,4.7,3.82,10,10,0,0,0,1.79,9.29a10.84,10.84,0,0,0-.13,2.48,12.44,12.44,0,0,0,1.05,4.46,11.19,11.19,0,0,0,2.43,3.58A9.84,9.84,0,0,0,9.43,22.3a15.57,15.57,0,0,0,5,.65,14.94,14.94,0,0,0,6.31-1.68,18,18,0,0,0,3.9-2.75.83.83,0,0,1,1.1-.1.82.82,0,0,1,.09,1.23,18.57,18.57,0,0,1-8,4.46,16,16,0,0,1-3.71.48,16.77,16.77,0,0,1-6.42-1.14,10.85,10.85,0,0,1-3.65-2.39,13.37,13.37,0,0,1-3.78-7A13.83,13.83,0,0,1,0,10.5,11.53,11.53,0,0,1,3.19,3,9.59,9.59,0,0,1,7.1.45,8.82,8.82,0,0,1,9.59,0a11.19,11.19,0,0,1,2.23.24c.57.11,1.13.26,1.7.4a1,1,0,0,1,.29.11A1,1,0,0,1,14.45,2,21.39,21.39,0,0,0,14,6a30.6,30.6,0,0,0,.06,3.83,21.24,21.24,0,0,0,1,5.25.82.82,0,0,1-.52,1,.8.8,0,0,1-1-.5,6.39,6.39,0,0,1-.24-.74,23.23,23.23,0,0,1-.67-3.42,34.27,34.27,0,0,1-.24-4.64,27.69,27.69,0,0,1,.41-4.64Z"/><path class="cls-1" d="M13.67,19.91a5,5,0,0,1-2.29-.5,3.89,3.89,0,0,1-.63-.43.83.83,0,0,1-.1-1.16.79.79,0,0,1,1.13-.1,2.45,2.45,0,0,0,1.21.5,5.43,5.43,0,0,0,2-.09,8.21,8.21,0,0,0,2.37-.81.82.82,0,0,1,1.11.35.83.83,0,0,1-.34,1.09,9,9,0,0,1-2.46.9A9.45,9.45,0,0,1,13.67,19.91Z"/><path class="cls-1" d="M9.37,8.2c.22,0,.42,0,.62.07a.78.78,0,0,1,.62.86.75.75,0,0,1-.84.73,2.42,2.42,0,0,0-2.61,2,.84.84,0,0,1-1,.63.82.82,0,0,1-.6-.95,4.07,4.07,0,0,1,1-2.07A3.89,3.89,0,0,1,8.73,8.27C9,8.23,9.16,8.23,9.37,8.2Z"/></g></g></svg>